<svg width="93" height="22" viewBox="0 0 93 22" fill="none" xmlns="http://www.w3.org/2000/svg">
<path d="M11.4404 0.671875V22H7.06055V0.671875H11.4404ZM18.0029 0.671875V4.11426H0.600586V0.671875H18.0029ZM20.2078 0.671875H28.1619C29.7928 0.671875 31.1941 0.916016 32.366 1.4043C33.5477 1.89258 34.4559 2.61523 35.0906 3.57227C35.7254 4.5293 36.0428 5.70605 36.0428 7.10254C36.0428 8.24512 35.8475 9.22656 35.4568 10.0469C35.076 10.8574 34.534 11.5361 33.8309 12.083C33.1375 12.6201 32.3221 13.0498 31.3846 13.3721L29.993 14.1045H23.0789L23.0496 10.6768H28.1912C28.9627 10.6768 29.6023 10.54 30.1102 10.2666C30.618 9.99316 30.9988 9.6123 31.2527 9.12402C31.5164 8.63574 31.6482 8.06934 31.6482 7.4248C31.6482 6.74121 31.5213 6.15039 31.2674 5.65234C31.0135 5.1543 30.6277 4.77344 30.1102 4.50977C29.5926 4.24609 28.9432 4.11426 28.1619 4.11426H24.6023V22H20.2078V0.671875ZM32.1316 22L27.2684 12.4932L31.9119 12.4639L36.8338 21.7949V22H32.1316ZM47.7984 4.31934L41.9977 22H37.3248L45.2496 0.671875H48.2232L47.7984 4.31934ZM52.6178 22L46.8023 4.31934L46.3336 0.671875H49.3365L57.3053 22H52.6178ZM52.3541 14.0605V17.5029H41.0895V14.0605H52.3541ZM65.5307 22H60.8871L60.9164 18.5723H65.5307C66.683 18.5723 67.6547 18.3135 68.4457 17.7959C69.2367 17.2686 69.8324 16.502 70.2328 15.4961C70.643 14.4902 70.848 13.2744 70.848 11.8486V10.8086C70.848 9.71484 70.7309 8.75293 70.4965 7.92285C70.2719 7.09277 69.935 6.39453 69.4857 5.82812C69.0365 5.26172 68.4848 4.83691 67.8305 4.55371C67.1762 4.26074 66.4242 4.11426 65.5746 4.11426H60.7992V0.671875H65.5746C67.0004 0.671875 68.3041 0.916016 69.4857 1.4043C70.6771 1.88281 71.7074 2.57129 72.5766 3.46973C73.4457 4.36816 74.1146 5.44238 74.5834 6.69238C75.0619 7.93262 75.3012 9.31445 75.3012 10.8379V11.8486C75.3012 13.3623 75.0619 14.7441 74.5834 15.9941C74.1146 17.2441 73.4457 18.3184 72.5766 19.2168C71.7172 20.1055 70.6869 20.7939 69.4857 21.2822C68.2943 21.7607 66.976 22 65.5307 22ZM63.3773 0.671875V22H58.9828V0.671875H63.3773ZM92.5061 18.5723V22H81.1535V18.5723H92.5061ZM82.5891 0.671875V22H78.1945V0.671875H82.5891ZM91.0266 9.3584V12.6982H81.1535V9.3584H91.0266ZM92.4914 0.671875V4.11426H81.1535V0.671875H92.4914Z" fill="#83A9AC"/>
</svg>
