<svg width="27" height="29" viewBox="0 0 27 29" fill="none" xmlns="http://www.w3.org/2000/svg">
<path d="M3.13696 11.71C3.18892 11.0626 3.48281 10.4586 3.96011 10.0181C4.43741 9.57771 5.06309 9.33321 5.71255 9.33334H21.2875C21.9369 9.33321 22.5626 9.57771 23.0399 10.0181C23.5172 10.4586 23.8111 11.0626 23.863 11.71L24.9003 24.6267C24.9288 24.9821 24.8834 25.3396 24.767 25.6767C24.6506 26.0138 24.4656 26.3231 24.2238 26.5852C23.982 26.8472 23.6885 27.0564 23.3619 27.1995C23.0353 27.3426 22.6826 27.4166 22.326 27.4167H4.67405C4.31745 27.4166 3.96473 27.3426 3.6381 27.1995C3.31148 27.0564 3.01802 26.8472 2.7762 26.5852C2.53438 26.3231 2.34944 26.0138 2.23302 25.6767C2.1166 25.3396 2.07123 24.9821 2.09976 24.6267L3.13696 11.71V11.71Z" stroke="white" stroke-width="3" stroke-linecap="round" stroke-linejoin="round"/>
<path d="M18.6667 13.2083V6.75001C18.6667 5.37972 18.1223 4.06556 17.1534 3.09663C16.1845 2.12769 14.8703 1.58334 13.5 1.58334C12.1297 1.58334 10.8156 2.12769 9.84662 3.09663C8.87769 4.06556 8.33334 5.37972 8.33334 6.75001V13.2083" stroke="white" stroke-width="3" stroke-linecap="round" stroke-linejoin="round"/>
</svg>
