<svg width="249" height="45" viewBox="0 0 249 45" fill="none" xmlns="http://www.w3.org/2000/svg">
<path d="M22.85 0.810059L27.7893 16.0117H43.7732L30.8419 25.4068L35.7812 40.6084L22.85 31.2133L9.9187 40.6084L14.858 25.4068L1.92673 16.0117H17.9107L22.85 0.810059Z" fill="#EBB244"/>
<path d="M73.85 0.810059L78.7893 16.0117H94.7732L81.8419 25.4068L86.7812 40.6084L73.85 31.2133L60.9187 40.6084L65.858 25.4068L52.9267 16.0117H68.9107L73.85 0.810059Z" fill="#EBB244"/>
<path d="M124.85 0.810059L129.789 16.0117H145.773L132.842 25.4068L137.781 40.6084L124.85 31.2133L111.919 40.6084L116.858 25.4068L103.927 16.0117H119.911L124.85 0.810059Z" fill="#EBB244"/>
<path d="M175.85 0.810059L180.789 16.0117H196.773L183.842 25.4068L188.781 40.6084L175.85 31.2133L162.919 40.6084L167.858 25.4068L154.927 16.0117H170.911L175.85 0.810059Z" fill="#EBB244"/>
<path d="M226.85 0.810059L231.789 16.0117H247.773L234.842 25.4068L239.781 40.6084L226.85 31.2133L213.919 40.6084L218.858 25.4068L205.927 16.0117H221.911L226.85 0.810059Z" fill="#EBB244"/>
</svg>
